<svg xmlns="http://www.w3.org/2000/svg" xmlns:xlink="http://www.w3.org/1999/xlink" width="280" zoomAndPan="magnify" viewBox="0 0 210 67.499998" height="90" preserveAspectRatio="xMidYMid meet" version="1.0"><defs><filter x="0%" y="0%" width="100%" height="100%" id="id1"><feColorMatrix values="0 0 0 0 1 0 0 0 0 1 0 0 0 0 1 0 0 0 1 0" color-interpolation-filters="sRGB"/></filter><g/><mask id="id2"><g filter="url(#id1)"><rect x="-21" width="252" fill="rgb(0%, 0%, 0%)" y="-6.75" height="80.999998" fill-opacity="0.498"/></g></mask><clipPath id="id3"><path d="M 40 6 L 83 6 L 83 66.945312 L 40 66.945312 Z M 40 6 " clip-rule="nonzero"/></clipPath><clipPath id="id4"><rect x="0" width="163" y="0" height="67"/></clipPath></defs><path fill="rgb(94.509888%, 89.408875%, 95.289612%)" d="M 183.707031 0.441406 L 29.550781 0.441406 L 29.550781 59.121094 L 30.089844 59.121094 L 183.667969 59.050781 C 194.199219 59.050781 202.628906 45.90625 202.628906 29.699219 C 202.660156 13.589844 194.234375 0.441406 183.707031 0.441406 M 48.933594 29.765625 L 48.933594 29.628906 L 48.933594 29.765625 " fill-opacity="1" fill-rule="nonzero"/><path fill="rgb(94.509888%, 89.408875%, 95.289612%)" d="M 47.382812 18.0625 L 46.980469 16.75 C 46.84375 16.3125 46.710938 15.910156 46.539062 15.507812 L 46.539062 15.472656 C 46.40625 15.070312 46.238281 14.667969 46.070312 14.261719 L 46.070312 14.230469 C 45.902344 13.824219 45.730469 13.457031 45.5625 13.050781 L 45.5625 13.019531 C 45.394531 12.648438 45.226562 12.246094 45.023438 11.875 L 45.023438 11.84375 C 44.855469 11.472656 44.652344 11.101562 44.449219 10.765625 L 44.449219 10.734375 C 44.25 10.363281 44.046875 10.027344 43.84375 9.691406 C 43.640625 9.355469 43.441406 9.015625 43.203125 8.679688 C 39.867188 3.671875 35.351562 0.542969 30.328125 0.441406 L 30.089844 0.441406 C 19.675781 0.441406 11.246094 13.589844 11.246094 29.796875 C 11.246094 46.007812 19.675781 59.152344 30.089844 59.152344 L 30.328125 59.152344 C 40.640625 58.953125 48.933594 45.90625 48.933594 29.832031 C 48.96875 25.628906 48.394531 21.660156 47.382812 18.0625 " fill-opacity="1" fill-rule="nonzero"/><path fill="rgb(96.469116%, 52.549744%, 74.119568%)" d="M 179.773438 5.214844 L 33.800781 5.214844 L 33.800781 54.441406 L 34.253906 54.441406 L 179.734375 54.386719 C 188.640625 54.386719 195.695312 43.355469 195.695312 29.757812 C 195.722656 16.246094 188.667969 5.214844 179.773438 5.214844 M 50.027344 29.816406 L 50.027344 29.703125 L 50.027344 29.816406 " fill-opacity="1" fill-rule="nonzero"/><path fill="rgb(96.469116%, 52.549744%, 74.119568%)" d="M 48.726562 19.996094 L 48.390625 18.898438 C 48.277344 18.53125 48.164062 18.191406 48.023438 17.855469 L 48.023438 17.824219 C 47.910156 17.488281 47.769531 17.148438 47.628906 16.808594 L 47.628906 16.78125 C 47.488281 16.441406 47.347656 16.132812 47.203125 15.792969 L 47.203125 15.765625 C 47.0625 15.457031 46.921875 15.117188 46.753906 14.808594 L 46.753906 14.777344 C 46.613281 14.46875 46.441406 14.160156 46.273438 13.875 L 46.273438 13.847656 C 46.105469 13.539062 45.933594 13.253906 45.765625 12.972656 C 45.597656 12.691406 45.425781 12.410156 45.230469 12.128906 C 42.4375 7.925781 38.65625 5.300781 34.453125 5.214844 L 34.253906 5.214844 C 25.535156 5.214844 18.480469 16.246094 18.480469 29.84375 C 18.480469 43.441406 25.535156 54.46875 34.253906 54.46875 L 34.453125 54.46875 C 43.085938 54.300781 50.027344 43.355469 50.027344 29.871094 C 50.054688 26.34375 49.574219 23.015625 48.726562 19.996094 " fill-opacity="1" fill-rule="nonzero"/><g mask="url(#id2)"><g transform="matrix(1, 0, 0, 1, 27, 0)"><g clip-path="url(#id4)"><g fill="rgb(0%, 0%, 0%)" fill-opacity="1"><g transform="translate(1.711511, 48.341501)"><g><path d="M 46.128906 -42.472656 L 24.042969 -42.472656 C 21.1875 -42.472656 19.984375 -40.769531 19.984375 -39.167969 C 19.984375 -37.664062 21.085938 -36.210938 22.890625 -36.210938 L 25.894531 -36.210938 L 22.839844 -28.148438 L 20.535156 -28.148438 C 17.832031 -28.148438 16.527344 -26.496094 16.527344 -24.894531 C 16.527344 -23.339844 17.730469 -21.835938 20.136719 -21.835938 L 20.636719 -21.835938 L 17.28125 -12.523438 C 15.578125 -7.8125 13.574219 -6.910156 10.96875 -6.910156 C 9.164062 -6.910156 7.914062 -8.113281 7.464844 -9.316406 C 7.5625 -9.667969 7.613281 -10.015625 7.613281 -10.367188 C 7.613281 -12.671875 5.558594 -14.074219 3.605469 -14.074219 C 1.601562 -14.074219 -0.402344 -12.671875 -0.402344 -9.464844 C -0.402344 -4.707031 4.359375 0 10.917969 0 C 16.078125 0 21.136719 -2.355469 23.992188 -10.367188 C 25.195312 -13.875 26.847656 -18.382812 28.097656 -21.886719 L 31.105469 -21.886719 C 34.160156 -21.886719 35.359375 -23.640625 35.359375 -25.292969 C 35.359375 -26.746094 34.410156 -28.148438 32.90625 -28.148438 L 30.300781 -28.148438 L 33.105469 -36.210938 L 44.878906 -36.210938 C 47.683594 -36.3125 48.882812 -37.914062 48.882812 -39.519531 C 48.882812 -41.019531 47.832031 -42.472656 46.128906 -42.472656 Z M 46.128906 -42.472656 "/></g></g></g><g fill="rgb(0%, 0%, 0%)" fill-opacity="1"><g transform="translate(35.068735, 48.341501)"><g><path d="M 31.402344 -16.929688 C 30 -16.929688 28.449219 -16.078125 27.847656 -14.175781 C 25.894531 -8.015625 22.738281 -5.960938 20.484375 -5.960938 C 19.632812 -5.960938 19.132812 -6.410156 19.132812 -7.210938 C 19.132812 -7.613281 19.234375 -8.113281 19.382812 -8.664062 L 24.992188 -24.894531 C 25.195312 -25.492188 25.292969 -26.046875 25.292969 -26.546875 C 25.292969 -28.75 23.492188 -29.902344 21.636719 -29.902344 C 20.234375 -29.902344 18.78125 -29.25 17.980469 -28 C 16.929688 -28.648438 14.976562 -29.402344 12.421875 -29.402344 C 9.117188 -29.402344 5.507812 -27.597656 4.15625 -23.742188 L -0.550781 -10.269531 C -0.851562 -9.367188 -1.050781 -8.464844 -1.050781 -7.5625 C -1.050781 -3.40625 2.304688 0 6.710938 0 C 9.066406 0 11.46875 -1.050781 13.324219 -2.703125 C 14.925781 -0.402344 18.480469 0 19.984375 0 C 24.140625 0 29.703125 -2.105469 32.90625 -10.21875 C 33.609375 -12.171875 34.160156 -13.421875 34.160156 -14.324219 C 34.160156 -16.027344 32.855469 -16.929688 31.402344 -16.929688 Z M 14.875 -17.429688 L 12.472656 -9.96875 C 11.417969 -6.710938 9.515625 -5.960938 8.464844 -5.960938 C 7.363281 -5.960938 6.8125 -6.660156 6.8125 -7.8125 C 6.8125 -8.464844 6.960938 -9.066406 7.113281 -9.515625 L 10.316406 -19.582031 C 11.269531 -22.640625 12.671875 -23.039062 13.472656 -23.039062 C 14.425781 -23.039062 15.476562 -22.089844 15.476562 -20.386719 C 15.476562 -19.632812 15.277344 -18.683594 14.875 -17.429688 Z M 14.875 -17.429688 "/></g></g></g><g clip-path="url(#id3)"><g fill="rgb(0%, 0%, 0%)" fill-opacity="1"><g transform="translate(61.363845, 48.341501)"><g><path d="M 13.472656 -34.007812 C 15.726562 -34.007812 17.582031 -35.863281 17.582031 -38.164062 C 17.582031 -40.417969 15.726562 -42.222656 13.472656 -42.222656 C 11.21875 -42.222656 9.367188 -40.417969 9.367188 -38.164062 C 9.367188 -35.863281 11.21875 -34.007812 13.472656 -34.007812 Z M 10.117188 -17.679688 L 12.171875 -23.589844 C 12.472656 -24.542969 12.820312 -25.492188 12.820312 -26.144531 C 12.820312 -27.796875 11.46875 -29.402344 9.566406 -29.402344 C 7.8125 -29.402344 6.261719 -28.25 5.710938 -26.546875 C 3.207031 -19.382812 -0.0507812 -9.867188 -2.855469 -1.953125 C -5.109375 -0.550781 -6.460938 -0.550781 -9.417969 0.25 C -14.675781 1.652344 -19.03125 3.304688 -20.386719 7.664062 C -20.585938 8.464844 -20.6875 9.214844 -20.6875 10.015625 C -20.6875 14.324219 -17.179688 18.082031 -11.320312 18.082031 C -6.359375 18.082031 -1.703125 15.425781 0.402344 9.617188 C 1.101562 7.511719 1.902344 5.308594 2.65625 3.253906 C 9.867188 1 17.179688 -2.90625 20.636719 -13.421875 C 20.785156 -13.824219 20.835938 -14.222656 20.835938 -14.574219 C 20.835938 -16.277344 19.535156 -17.28125 18.03125 -17.28125 C 16.679688 -17.28125 15.226562 -16.429688 14.523438 -14.476562 C 12.671875 -9.367188 9.367188 -6.359375 5.410156 -4.359375 Z M -5.960938 5.558594 L -7.464844 8.964844 C -8.265625 10.769531 -9.96875 11.769531 -11.417969 11.769531 C -12.621094 11.769531 -13.121094 11.070312 -13.121094 10.167969 C -13.121094 9.867188 -13.074219 9.464844 -12.921875 9.117188 C -12.171875 7.363281 -9.214844 6.410156 -5.960938 5.558594 Z M -5.960938 5.558594 "/></g></g></g></g><g fill="rgb(0%, 0%, 0%)" fill-opacity="1"><g transform="translate(74.235927, 48.341501)"><g><path d="M 31.402344 -16.929688 C 30 -16.929688 28.449219 -16.078125 27.847656 -14.175781 C 25.894531 -8.015625 22.738281 -5.960938 20.484375 -5.960938 C 19.632812 -5.960938 19.132812 -6.410156 19.132812 -7.210938 C 19.132812 -7.613281 19.234375 -8.113281 19.382812 -8.664062 L 24.992188 -24.894531 C 25.195312 -25.492188 25.292969 -26.046875 25.292969 -26.546875 C 25.292969 -28.75 23.492188 -29.902344 21.636719 -29.902344 C 20.234375 -29.902344 18.78125 -29.25 17.980469 -28 C 16.929688 -28.648438 14.976562 -29.402344 12.421875 -29.402344 C 9.117188 -29.402344 5.507812 -27.597656 4.15625 -23.742188 L -0.550781 -10.269531 C -0.851562 -9.367188 -1.050781 -8.464844 -1.050781 -7.5625 C -1.050781 -3.40625 2.304688 0 6.710938 0 C 9.066406 0 11.46875 -1.050781 13.324219 -2.703125 C 14.925781 -0.402344 18.480469 0 19.984375 0 C 24.140625 0 29.703125 -2.105469 32.90625 -10.21875 C 33.609375 -12.171875 34.160156 -13.421875 34.160156 -14.324219 C 34.160156 -16.027344 32.855469 -16.929688 31.402344 -16.929688 Z M 14.875 -17.429688 L 12.472656 -9.96875 C 11.417969 -6.710938 9.515625 -5.960938 8.464844 -5.960938 C 7.363281 -5.960938 6.8125 -6.660156 6.8125 -7.8125 C 6.8125 -8.464844 6.960938 -9.066406 7.113281 -9.515625 L 10.316406 -19.582031 C 11.269531 -22.640625 12.671875 -23.039062 13.472656 -23.039062 C 14.425781 -23.039062 15.476562 -22.089844 15.476562 -20.386719 C 15.476562 -19.632812 15.277344 -18.683594 14.875 -17.429688 Z M 14.875 -17.429688 "/></g></g></g><g fill="rgb(0%, 0%, 0%)" fill-opacity="1"><g transform="translate(100.531036, 48.341501)"><g><path d="M 31.855469 -16.828125 C 30.503906 -16.828125 29.101562 -16.128906 28.648438 -14.523438 C 26.394531 -8.515625 23.691406 -5.960938 21.4375 -5.960938 C 20.433594 -5.960938 19.882812 -6.660156 19.882812 -7.464844 C 19.882812 -7.761719 19.933594 -8.0625 20.136719 -8.664062 L 30.351562 -38.164062 C 30.554688 -38.765625 30.804688 -39.617188 30.804688 -40.167969 C 30.804688 -42.324219 29.050781 -43.476562 27.296875 -43.476562 C 25.746094 -43.476562 24.292969 -42.324219 23.390625 -39.71875 L 18.832031 -26.796875 C 17.328125 -28.449219 15.125 -29.402344 12.773438 -29.402344 C 9.515625 -29.402344 6.011719 -27.597656 4.65625 -23.792969 L -0.101562 -10.269531 C -0.449219 -9.316406 -0.601562 -8.3125 -0.601562 -7.414062 C -0.601562 -3.003906 2.957031 0 7.261719 0 C 9.617188 0 12.222656 -0.800781 14.222656 -2.753906 C 15.777344 -1.050781 18.179688 0 20.6875 0 C 25.644531 0 31.355469 -3.554688 34.710938 -13.375 C 34.808594 -13.722656 34.910156 -14.074219 34.910156 -14.375 C 34.910156 -15.925781 33.40625 -16.828125 31.855469 -16.828125 Z M 8.363281 -7.714844 C 7.414062 -7.964844 7.164062 -8.714844 7.164062 -9.515625 C 7.164062 -10.167969 7.3125 -10.769531 7.464844 -11.21875 L 10.316406 -19.582031 C 11.320312 -22.539062 12.671875 -23.039062 13.472656 -23.039062 C 14.425781 -23.039062 15.476562 -22.089844 15.476562 -20.386719 C 15.476562 -19.632812 15.328125 -18.683594 14.875 -17.429688 L 12.820312 -11.671875 C 11.320312 -7.964844 9.316406 -7.511719 8.363281 -7.714844 Z M 8.363281 -7.714844 "/></g></g></g><g fill="rgb(0%, 0%, 0%)" fill-opacity="1"><g transform="translate(127.427176, 48.341501)"><g><path d="M 31.402344 -16.929688 C 30 -16.929688 28.449219 -16.078125 27.847656 -14.175781 C 25.894531 -8.015625 22.738281 -5.960938 20.484375 -5.960938 C 19.632812 -5.960938 19.132812 -6.410156 19.132812 -7.210938 C 19.132812 -7.613281 19.234375 -8.113281 19.382812 -8.664062 L 24.992188 -24.894531 C 25.195312 -25.492188 25.292969 -26.046875 25.292969 -26.546875 C 25.292969 -28.75 23.492188 -29.902344 21.636719 -29.902344 C 20.234375 -29.902344 18.78125 -29.25 17.980469 -28 C 16.929688 -28.648438 14.976562 -29.402344 12.421875 -29.402344 C 9.117188 -29.402344 5.507812 -27.597656 4.15625 -23.742188 L -0.550781 -10.269531 C -0.851562 -9.367188 -1.050781 -8.464844 -1.050781 -7.5625 C -1.050781 -3.40625 2.304688 0 6.710938 0 C 9.066406 0 11.46875 -1.050781 13.324219 -2.703125 C 14.925781 -0.402344 18.480469 0 19.984375 0 C 24.140625 0 29.703125 -2.105469 32.90625 -10.21875 C 33.609375 -12.171875 34.160156 -13.421875 34.160156 -14.324219 C 34.160156 -16.027344 32.855469 -16.929688 31.402344 -16.929688 Z M 14.875 -17.429688 L 12.472656 -9.96875 C 11.417969 -6.710938 9.515625 -5.960938 8.464844 -5.960938 C 7.363281 -5.960938 6.8125 -6.660156 6.8125 -7.8125 C 6.8125 -8.464844 6.960938 -9.066406 7.113281 -9.515625 L 10.316406 -19.582031 C 11.269531 -22.640625 12.671875 -23.039062 13.472656 -23.039062 C 14.425781 -23.039062 15.476562 -22.089844 15.476562 -20.386719 C 15.476562 -19.632812 15.277344 -18.683594 14.875 -17.429688 Z M 14.875 -17.429688 "/></g></g></g></g></g></g><g fill="rgb(100%, 100%, 100%)" fill-opacity="1"><g transform="translate(25.598104, 45.561024)"><g><path d="M 46.125 -42.46875 L 24.039062 -42.46875 C 21.183594 -42.46875 19.984375 -40.769531 19.984375 -39.164062 C 19.984375 -37.664062 21.085938 -36.210938 22.886719 -36.210938 L 25.894531 -36.210938 L 22.839844 -28.148438 L 20.535156 -28.148438 C 17.828125 -28.148438 16.527344 -26.492188 16.527344 -24.890625 C 16.527344 -23.339844 17.730469 -21.835938 20.132812 -21.835938 L 20.632812 -21.835938 L 17.277344 -12.519531 C 15.574219 -7.8125 13.574219 -6.910156 10.96875 -6.910156 C 9.164062 -6.910156 7.914062 -8.113281 7.460938 -9.316406 C 7.5625 -9.667969 7.613281 -10.015625 7.613281 -10.367188 C 7.613281 -12.671875 5.558594 -14.074219 3.605469 -14.074219 C 1.601562 -14.074219 -0.402344 -12.671875 -0.402344 -9.464844 C -0.402344 -4.707031 4.355469 0 10.917969 0 C 16.078125 0 21.136719 -2.355469 23.988281 -10.367188 C 25.191406 -13.871094 26.84375 -18.378906 28.097656 -21.886719 L 31.101562 -21.886719 C 34.15625 -21.886719 35.359375 -23.640625 35.359375 -25.292969 C 35.359375 -26.746094 34.40625 -28.148438 32.90625 -28.148438 L 30.300781 -28.148438 L 33.105469 -36.210938 L 44.875 -36.210938 C 47.679688 -36.308594 48.882812 -37.914062 48.882812 -39.515625 C 48.882812 -41.019531 47.828125 -42.46875 46.125 -42.46875 Z M 46.125 -42.46875 "/></g></g></g><g fill="rgb(100%, 100%, 100%)" fill-opacity="1"><g transform="translate(58.949796, 45.561024)"><g><path d="M 31.402344 -16.929688 C 30 -16.929688 28.445312 -16.078125 27.847656 -14.171875 C 25.894531 -8.011719 22.738281 -5.960938 20.484375 -5.960938 C 19.632812 -5.960938 19.132812 -6.410156 19.132812 -7.210938 C 19.132812 -7.613281 19.230469 -8.113281 19.382812 -8.664062 L 24.992188 -24.890625 C 25.191406 -25.492188 25.292969 -26.042969 25.292969 -26.542969 C 25.292969 -28.746094 23.488281 -29.898438 21.636719 -29.898438 C 20.234375 -29.898438 18.78125 -29.25 17.980469 -27.996094 C 16.929688 -28.648438 14.976562 -29.398438 12.421875 -29.398438 C 9.113281 -29.398438 5.507812 -27.597656 4.15625 -23.738281 L -0.550781 -10.265625 C -0.851562 -9.367188 -1.050781 -8.464844 -1.050781 -7.5625 C -1.050781 -3.40625 2.304688 0 6.710938 0 C 9.066406 0 11.46875 -1.050781 13.320312 -2.703125 C 14.925781 -0.402344 18.480469 0 19.984375 0 C 24.140625 0 29.699219 -2.101562 32.90625 -10.21875 C 33.605469 -12.171875 34.15625 -13.421875 34.15625 -14.324219 C 34.15625 -16.027344 32.855469 -16.929688 31.402344 -16.929688 Z M 14.875 -17.429688 L 12.46875 -9.964844 C 11.417969 -6.710938 9.515625 -5.960938 8.464844 -5.960938 C 7.363281 -5.960938 6.8125 -6.660156 6.8125 -7.8125 C 6.8125 -8.464844 6.960938 -9.066406 7.113281 -9.515625 L 10.316406 -19.582031 C 11.269531 -22.636719 12.671875 -23.039062 13.472656 -23.039062 C 14.425781 -23.039062 15.476562 -22.085938 15.476562 -20.382812 C 15.476562 -19.632812 15.273438 -18.679688 14.875 -17.429688 Z M 14.875 -17.429688 "/></g></g></g><g fill="rgb(100%, 100%, 100%)" fill-opacity="1"><g transform="translate(85.240544, 45.561024)"><g><path d="M 13.472656 -34.007812 C 15.726562 -34.007812 17.578125 -35.859375 17.578125 -38.164062 C 17.578125 -40.417969 15.726562 -42.21875 13.472656 -42.21875 C 11.21875 -42.21875 9.367188 -40.417969 9.367188 -38.164062 C 9.367188 -35.859375 11.21875 -34.007812 13.472656 -34.007812 Z M 10.117188 -17.679688 L 12.171875 -23.589844 C 12.46875 -24.539062 12.820312 -25.492188 12.820312 -26.144531 C 12.820312 -27.796875 11.46875 -29.398438 9.566406 -29.398438 C 7.8125 -29.398438 6.261719 -28.246094 5.710938 -26.542969 C 3.207031 -19.382812 -0.0507812 -9.867188 -2.855469 -1.953125 C -5.109375 -0.550781 -6.460938 -0.550781 -9.414062 0.25 C -14.675781 1.652344 -19.03125 3.304688 -20.382812 7.664062 C -20.585938 8.464844 -20.683594 9.214844 -20.683594 10.015625 C -20.683594 14.324219 -17.179688 18.078125 -11.320312 18.078125 C -6.359375 18.078125 -1.703125 15.425781 0.402344 9.617188 C 1.101562 7.511719 1.902344 5.308594 2.65625 3.253906 C 9.867188 1 17.179688 -2.90625 20.632812 -13.421875 C 20.785156 -13.824219 20.835938 -14.222656 20.835938 -14.574219 C 20.835938 -16.277344 19.53125 -17.277344 18.03125 -17.277344 C 16.675781 -17.277344 15.226562 -16.425781 14.523438 -14.472656 C 12.671875 -9.367188 9.367188 -6.359375 5.410156 -4.355469 Z M -5.960938 5.558594 L -7.460938 8.964844 C -8.265625 10.769531 -9.964844 11.769531 -11.417969 11.769531 C -12.621094 11.769531 -13.121094 11.070312 -13.121094 10.167969 C -13.121094 9.867188 -13.070312 9.464844 -12.921875 9.113281 C -12.171875 7.363281 -9.214844 6.410156 -5.960938 5.558594 Z M -5.960938 5.558594 "/></g></g></g><g fill="rgb(100%, 100%, 100%)" fill-opacity="1"><g transform="translate(98.11049, 45.561024)"><g><path d="M 31.402344 -16.929688 C 30 -16.929688 28.445312 -16.078125 27.847656 -14.171875 C 25.894531 -8.011719 22.738281 -5.960938 20.484375 -5.960938 C 19.632812 -5.960938 19.132812 -6.410156 19.132812 -7.210938 C 19.132812 -7.613281 19.230469 -8.113281 19.382812 -8.664062 L 24.992188 -24.890625 C 25.191406 -25.492188 25.292969 -26.042969 25.292969 -26.542969 C 25.292969 -28.746094 23.488281 -29.898438 21.636719 -29.898438 C 20.234375 -29.898438 18.78125 -29.25 17.980469 -27.996094 C 16.929688 -28.648438 14.976562 -29.398438 12.421875 -29.398438 C 9.113281 -29.398438 5.507812 -27.597656 4.15625 -23.738281 L -0.550781 -10.265625 C -0.851562 -9.367188 -1.050781 -8.464844 -1.050781 -7.5625 C -1.050781 -3.40625 2.304688 0 6.710938 0 C 9.066406 0 11.46875 -1.050781 13.320312 -2.703125 C 14.925781 -0.402344 18.480469 0 19.984375 0 C 24.140625 0 29.699219 -2.101562 32.90625 -10.21875 C 33.605469 -12.171875 34.15625 -13.421875 34.15625 -14.324219 C 34.15625 -16.027344 32.855469 -16.929688 31.402344 -16.929688 Z M 14.875 -17.429688 L 12.46875 -9.964844 C 11.417969 -6.710938 9.515625 -5.960938 8.464844 -5.960938 C 7.363281 -5.960938 6.8125 -6.660156 6.8125 -7.8125 C 6.8125 -8.464844 6.960938 -9.066406 7.113281 -9.515625 L 10.316406 -19.582031 C 11.269531 -22.636719 12.671875 -23.039062 13.472656 -23.039062 C 14.425781 -23.039062 15.476562 -22.085938 15.476562 -20.382812 C 15.476562 -19.632812 15.273438 -18.679688 14.875 -17.429688 Z M 14.875 -17.429688 "/></g></g></g><g fill="rgb(100%, 100%, 100%)" fill-opacity="1"><g transform="translate(124.401238, 45.561024)"><g><path d="M 31.851562 -16.828125 C 30.5 -16.828125 29.097656 -16.125 28.648438 -14.523438 C 26.394531 -8.515625 23.6875 -5.960938 21.4375 -5.960938 C 20.433594 -5.960938 19.882812 -6.660156 19.882812 -7.460938 C 19.882812 -7.761719 19.933594 -8.0625 20.132812 -8.664062 L 30.351562 -38.164062 C 30.550781 -38.765625 30.800781 -39.617188 30.800781 -40.167969 C 30.800781 -42.320312 29.046875 -43.472656 27.296875 -43.472656 C 25.742188 -43.472656 24.289062 -42.320312 23.390625 -39.714844 L 18.832031 -26.792969 C 17.328125 -28.445312 15.125 -29.398438 12.769531 -29.398438 C 9.515625 -29.398438 6.011719 -27.597656 4.65625 -23.789062 L -0.101562 -10.265625 C -0.449219 -9.316406 -0.601562 -8.3125 -0.601562 -7.414062 C -0.601562 -3.003906 2.953125 0 7.261719 0 C 9.617188 0 12.21875 -0.800781 14.222656 -2.753906 C 15.777344 -1.050781 18.179688 0 20.683594 0 C 25.640625 0 31.351562 -3.554688 34.707031 -13.371094 C 34.808594 -13.722656 34.90625 -14.074219 34.90625 -14.375 C 34.90625 -15.925781 33.40625 -16.828125 31.851562 -16.828125 Z M 8.363281 -7.710938 C 7.414062 -7.964844 7.160156 -8.714844 7.160156 -9.515625 C 7.160156 -10.167969 7.3125 -10.769531 7.460938 -11.21875 L 10.316406 -19.582031 C 11.320312 -22.539062 12.671875 -23.039062 13.472656 -23.039062 C 14.425781 -23.039062 15.476562 -22.085938 15.476562 -20.382812 C 15.476562 -19.632812 15.324219 -18.679688 14.875 -17.429688 L 12.820312 -11.667969 C 11.320312 -7.964844 9.316406 -7.511719 8.363281 -7.710938 Z M 8.363281 -7.710938 "/></g></g></g><g fill="rgb(100%, 100%, 100%)" fill-opacity="1"><g transform="translate(151.292918, 45.561024)"><g><path d="M 31.402344 -16.929688 C 30 -16.929688 28.445312 -16.078125 27.847656 -14.171875 C 25.894531 -8.011719 22.738281 -5.960938 20.484375 -5.960938 C 19.632812 -5.960938 19.132812 -6.410156 19.132812 -7.210938 C 19.132812 -7.613281 19.230469 -8.113281 19.382812 -8.664062 L 24.992188 -24.890625 C 25.191406 -25.492188 25.292969 -26.042969 25.292969 -26.542969 C 25.292969 -28.746094 23.488281 -29.898438 21.636719 -29.898438 C 20.234375 -29.898438 18.78125 -29.25 17.980469 -27.996094 C 16.929688 -28.648438 14.976562 -29.398438 12.421875 -29.398438 C 9.113281 -29.398438 5.507812 -27.597656 4.15625 -23.738281 L -0.550781 -10.265625 C -0.851562 -9.367188 -1.050781 -8.464844 -1.050781 -7.5625 C -1.050781 -3.40625 2.304688 0 6.710938 0 C 9.066406 0 11.46875 -1.050781 13.320312 -2.703125 C 14.925781 -0.402344 18.480469 0 19.984375 0 C 24.140625 0 29.699219 -2.101562 32.90625 -10.21875 C 33.605469 -12.171875 34.15625 -13.421875 34.15625 -14.324219 C 34.15625 -16.027344 32.855469 -16.929688 31.402344 -16.929688 Z M 14.875 -17.429688 L 12.46875 -9.964844 C 11.417969 -6.710938 9.515625 -5.960938 8.464844 -5.960938 C 7.363281 -5.960938 6.8125 -6.660156 6.8125 -7.8125 C 6.8125 -8.464844 6.960938 -9.066406 7.113281 -9.515625 L 10.316406 -19.582031 C 11.269531 -22.636719 12.671875 -23.039062 13.472656 -23.039062 C 14.425781 -23.039062 15.476562 -22.085938 15.476562 -20.382812 C 15.476562 -19.632812 15.273438 -18.679688 14.875 -17.429688 Z M 14.875 -17.429688 "/></g></g></g></svg>